<?xml version="1.0" encoding="UTF-8" standalone="no"?>
<svg
   xmlns:dc="http://purl.org/dc/elements/1.1/"
   xmlns:cc="http://creativecommons.org/ns#"
   xmlns:rdf="http://www.w3.org/1999/02/22-rdf-syntax-ns#"
   xmlns:svg="http://www.w3.org/2000/svg"
   xmlns="http://www.w3.org/2000/svg"
   xmlns:sodipodi="http://sodipodi.sourceforge.net/DTD/sodipodi-0.dtd"
   xmlns:inkscape="http://www.inkscape.org/namespaces/inkscape"
   version="1.1"
   x="0px"
   y="0px"
   viewBox="0 0 200 200"
   enable-background="new 0 0 100 100"
   xml:space="preserve"
   id="svg4268"
   inkscape:version="0.91 r"
   sodipodi:docname="icono.svg"
   width="200"
   height="200"
   inkscape:export-filename="/home/isidoro/APPS/AndroidSensor/resources/icon.png"
   inkscape:export-xdpi="86.400002"
   inkscape:export-ydpi="86.400002"><metadata
     id="metadata4296"><rdf:RDF><cc:Work
         rdf:about=""><dc:format>image/svg+xml</dc:format><dc:type
           rdf:resource="http://purl.org/dc/dcmitype/StillImage" /><dc:title></dc:title></cc:Work></rdf:RDF></metadata><defs
     id="defs4294"><style
       id="style4431">.cls-1{fill:none;stroke:#000;stroke-linecap:round;stroke-linejoin:round;stroke-width:5px;}</style></defs><sodipodi:namedview
     pagecolor="#ffffff"
     bordercolor="#666666"
     borderopacity="1"
     objecttolerance="10"
     gridtolerance="10"
     guidetolerance="10"
     inkscape:pageopacity="1"
     inkscape:pageshadow="2"
     inkscape:window-width="1280"
     inkscape:window-height="953"
     id="namedview4292"
     showgrid="false"
     inkscape:zoom="2.2570848"
     inkscape:cx="31.092619"
     inkscape:cy="64.732795"
     inkscape:window-x="0"
     inkscape:window-y="40"
     inkscape:window-maximized="1"
     inkscape:current-layer="svg4268"
     fit-margin-top="0"
     fit-margin-left="0"
     fit-margin-right="0"
     fit-margin-bottom="0" /><path
     d="m 130.19366,20.429479 -60.387328,0 c -7.079729,0 -12.872402,5.792674 -12.872402,12.872405 l 0,133.396236 c 0,7.07973 5.792673,12.8724 12.872402,12.8724 l 60.387328,0 c 7.07973,0 12.87241,-5.79267 12.87241,-12.8724 l 0,-133.394406 c 0.002,-7.07973 -5.79268,-12.874234 -12.87241,-12.874234 z m -44.338476,10.128024 28.287796,0 c 1.19735,0 2.17683,0.979482 2.17683,2.176829 0,1.197348 -0.97948,2.17683 -2.17683,2.17683 l -28.287796,0 c -1.197347,0 -2.176829,-0.979482 -2.176829,-2.17683 0,-1.197347 0.979482,-2.176829 2.176829,-2.176829 z M 99.999999,174.09275 c -4.23283,0 -7.665589,-3.43276 -7.665589,-7.66558 0,-4.23284 3.432759,-7.6656 7.665589,-7.6656 4.232821,0 7.665581,3.43276 7.665581,7.6656 0,4.23465 -3.43276,7.66558 -7.665581,7.66558 z m 36.907241,-20.73023 -73.814476,0 0,-109.414495 73.814476,0 0,109.414495 z"
     id="path4270"
     inkscape:connector-curvature="0"
     style="fill:#000040;fill-opacity:1" /><g
     id="g4407"
     transform="matrix(0.83080505,0,0,0.83080505,46.568748,-19.593544)"
     style="fill:#007040;fill-opacity:1"><path
       id="path4319"
       d="m 80.61262,123.54899 -33,0 c -2.2,0 -3.9,1.8 -3.9,3.9 l 0,32.99999 c 0,2.2 1.8,3.90001 3.9,3.90001 l 33,0 c 2.2,0 3.9,-1.8 3.9,-3.90001 l 0,-32.99999 c 0,-2.2 -1.7,-3.9 -3.9,-3.9 z m -1.7,32.39999 c 0,1.60001 -1.3,2.8 -2.8,2.8 l -23.8,0 c -1.6,0 -2.8,-1.3 -2.8,-2.8 l 0,-23.8 c 0,-1.59999 1.3,-2.79999 2.8,-2.79999 l 23.8,0 c 1.6,0 2.8,1.29999 2.8,2.79999 l 0,23.8 z"
       inkscape:connector-curvature="0"
       style="fill:#007040;fill-opacity:1" /><rect
       id="rect4321"
       height="22.4"
       width="22.4"
       y="132.64899"
       x="52.912617"
       style="fill:#007040;fill-opacity:1" /><path
       id="path4323"
       d="m 40.81262,158.94898 c 0,1 -0.8,1.90001 -1.9,1.90001 l -7.1,0 c -1,0 -1.9,-0.8 -1.9,-1.90001 l 0,0 c 0,-1 0.8,-1.89999 1.9,-1.89999 l 7.1,0 c 1,0 1.9,0.89999 1.9,1.89999 l 0,0 z"
       inkscape:connector-curvature="0"
       style="fill:#007040;fill-opacity:1" /><path
       id="path4325"
       d="m 40.81262,149.34898 c 0,1 -0.8,1.9 -1.9,1.9 l -7.1,0 c -1,0 -1.9,-0.8 -1.9,-1.9 l 0,0 c 0,-1 0.8,-1.9 1.9,-1.9 l 7.1,0 c 1,0 1.9,0.9 1.9,1.9 l 0,0 z"
       inkscape:connector-curvature="0"
       style="fill:#007040;fill-opacity:1" /><path
       id="path4327"
       d="m 40.81262,139.24898 c 0,1 -0.8,1.9 -1.9,1.9 l -7.1,0 c -1,0 -1.9,-0.8 -1.9,-1.9 l 0,0 c 0,-1 0.8,-1.9 1.9,-1.9 l 7.1,0 c 1,0 1.9,0.8 1.9,1.9 l 0,0 z"
       inkscape:connector-curvature="0"
       style="fill:#007040;fill-opacity:1" /><path
       id="path4329"
       d="m 40.81262,129.64898 c 0,1 -0.8,1.90001 -1.9,1.90001 l -7.1,0 c -1,0 -1.9,-0.80001 -1.9,-1.90001 l 0,0 c 0,-1 0.8,-1.89999 1.9,-1.89999 l 7.1,0 c 1,0 1.9,0.8 1.9,1.89999 l 0,0 z"
       inkscape:connector-curvature="0"
       style="fill:#007040;fill-opacity:1" /><path
       id="path4331"
       d="m 98.71262,158.84898 c 0,1 -0.8,1.9 -1.9,1.9 l -7.1,0 c -1,0 -1.9,-0.8 -1.9,-1.9 l 0,0 c 0,-1 0.8,-1.9 1.9,-1.9 l 7.1,0 c 1.1,0 1.9,0.9 1.9,1.9 l 0,0 z"
       inkscape:connector-curvature="0"
       style="fill:#007040;fill-opacity:1" /><path
       id="path4333"
       d="m 98.71262,149.24898 c 0,1 -0.8,1.9 -1.9,1.9 l -7.1,0 c -1,0 -1.9,-0.8 -1.9,-1.9 l 0,0 c 0,-1 0.8,-1.9 1.9,-1.9 l 7.1,0 c 1.1,0 1.9,0.8 1.9,1.9 l 0,0 z"
       inkscape:connector-curvature="0"
       style="fill:#007040;fill-opacity:1" /><path
       id="path4335"
       d="m 98.71262,139.14898 c 0,1 -0.8,1.90001 -1.9,1.90001 l -7.1,0 c -1,0 -1.9,-0.80001 -1.9,-1.90001 l 0,0 c 0,-1 0.8,-1.9 1.9,-1.9 l 7.1,0 c 1.1,0 1.9,0.80001 1.9,1.9 l 0,0 z"
       inkscape:connector-curvature="0"
       style="fill:#007040;fill-opacity:1" /><path
       id="path4337"
       d="m 98.71262,129.44898 c 0,1 -0.8,1.9 -1.9,1.9 l -7.1,0 c -1,0 -1.9,-0.79999 -1.9,-1.9 l 0,0 c 0,-1 0.8,-1.89999 1.9,-1.89999 l 7.1,0 c 1.1,0.1 1.9,0.89999 1.9,1.89999 l 0,0 z"
       inkscape:connector-curvature="0"
       style="fill:#007040;fill-opacity:1" /><path
       id="path4339"
       d="m 49.51262,177.54899 c -1,0 -1.9,-0.80001 -1.9,-1.90001 l 0,-7.09999 c 0,-1 0.8,-1.90001 1.9,-1.90001 l 0,0 c 1,0 1.9,0.8 1.9,1.90001 l 0,7.09999 c 0,1 -0.8,1.90001 -1.9,1.90001 l 0,0 z"
       inkscape:connector-curvature="0"
       style="fill:#007040;fill-opacity:1" /><path
       id="path4341"
       d="m 59.11262,177.54899 c -1,0 -1.9,-0.80001 -1.9,-1.90001 l 0,-7.09999 c 0,-1 0.8,-1.90001 1.9,-1.90001 l 0,0 c 1,0 1.9,0.8 1.9,1.90001 l 0,7.09999 c 0,1 -0.8,1.90001 -1.9,1.90001 l 0,0 z"
       inkscape:connector-curvature="0"
       style="fill:#007040;fill-opacity:1" /><path
       id="path4343"
       d="m 69.01262,177.54899 c -1,0 -1.9,-0.80001 -1.9,-1.90001 l 0,-7.09999 c 0,-1 0.8,-1.90001 1.9,-1.90001 l 0,0 c 1,0 1.9,0.8 1.9,1.90001 l 0,7.09999 c 0,1 -0.8,1.90001 -1.9,1.90001 l 0,0 z"
       inkscape:connector-curvature="0"
       style="fill:#007040;fill-opacity:1" /><path
       id="path4345"
       d="m 78.61262,177.54899 c -1,0 -1.9,-0.80001 -1.9,-1.90001 l 0,-7.09999 c 0,-1 0.8,-1.90001 1.9,-1.90001 l 0,0 c 1,0 1.9,0.8 1.9,1.90001 l 0,7.09999 c 0,1 -0.8,1.90001 -1.9,1.90001 l 0,0 z"
       inkscape:connector-curvature="0"
       style="fill:#007040;fill-opacity:1" /><path
       id="path4347"
       d="m 49.51262,121.24899 c -1,0 -1.9,-0.8 -1.9,-1.9 l 0,-7.1 c 0,-1 0.8,-1.9 1.9,-1.9 l 0,0 c 1,0 1.9,0.8 1.9,1.9 l 0,7.1 c 0,1 -0.8,1.9 -1.9,1.9 l 0,0 z"
       inkscape:connector-curvature="0"
       style="fill:#007040;fill-opacity:1" /><path
       id="path4349"
       d="m 59.11262,121.24899 c -1,0 -1.9,-0.8 -1.9,-1.9 l 0,-7.1 c 0,-1 0.8,-1.9 1.9,-1.9 l 0,0 c 1,0 1.9,0.8 1.9,1.9 l 0,7.1 c 0,1 -0.8,1.9 -1.9,1.9 l 0,0 z"
       inkscape:connector-curvature="0"
       style="fill:#007040;fill-opacity:1" /><path
       id="path4351"
       d="m 69.01262,121.24899 c -1,0 -1.9,-0.8 -1.9,-1.9 l 0,-7.1 c 0,-1 0.8,-1.9 1.9,-1.9 l 0,0 c 1,0 1.9,0.8 1.9,1.9 l 0,7.1 c 0,1 -0.8,1.9 -1.9,1.9 l 0,0 z"
       inkscape:connector-curvature="0"
       style="fill:#007040;fill-opacity:1" /><path
       id="path4353"
       d="m 78.61262,121.24899 c -1,0 -1.9,-0.8 -1.9,-1.9 l 0,-7.1 c 0,-1 0.8,-1.9 1.9,-1.9 l 0,0 c 1,0 1.9,0.8 1.9,1.9 l 0,7.1 c 0,1 -0.8,1.9 -1.9,1.9 l 0,0 z"
       inkscape:connector-curvature="0"
       style="fill:#007040;fill-opacity:1" /></g><g
     id="g4466"
     transform="matrix(0.60638581,0,0,0.60638581,157.00132,101.78946)"
     style="fill:none;fill-opacity:1;stroke:#ce4f1e;stroke-opacity:1"><path
       id="path4435"
       d="m -60.01565,-52.41178 c 0,-10.41 -8.09,-18.84 -18.06,-18.84 l -0.94,0"
       class="cls-1"
       inkscape:connector-curvature="0"
       style="fill:none;fill-opacity:1;stroke:#ce4f1e;stroke-width:5px;stroke-linecap:round;stroke-linejoin:round;stroke-opacity:1" /><path
       id="path4437"
       d="m -47.86565,-52.02178 c 0,-16.22 -13.95,-29.37 -31.15,-29.37"
       class="cls-1"
       inkscape:connector-curvature="0"
       style="fill:none;fill-opacity:1;stroke:#ce4f1e;stroke-width:5px;stroke-linecap:round;stroke-linejoin:round;stroke-opacity:1" /><path
       id="path4439"
       d="m -37.14565,-52.39178 c 0,-21.63 -18.75,-39.16 -41.87,-39.16"
       class="cls-1"
       inkscape:connector-curvature="0"
       style="fill:none;fill-opacity:1;stroke:#ce4f1e;stroke-width:5px;stroke-linecap:round;stroke-linejoin:round;stroke-opacity:1" /></g></svg>