<svg xmlns="http://www.w3.org/2000/svg" xmlns:xlink="http://www.w3.org/1999/xlink" version="1.1" x="0px" y="0px" viewBox="0 0 100 125" enable-background="new 0 0 100 100" xml:space="preserve"><path fill="#000000" d="M67.512,6.537H34.528c-3.867,0-7.031,3.164-7.031,7.031V86.43c0,3.867,3.164,7.031,7.031,7.031h32.984  c3.867,0,7.031-3.164,7.031-7.031V13.569C74.544,9.702,71.379,6.537,67.512,6.537z M43.294,12.069h15.451  c0.654,0,1.189,0.535,1.189,1.189s-0.535,1.189-1.189,1.189H43.294c-0.654,0-1.189-0.535-1.189-1.189S42.64,12.069,43.294,12.069z   M51.02,90.469c-2.312,0-4.187-1.875-4.187-4.187s1.875-4.187,4.187-4.187s4.187,1.875,4.187,4.187  C55.207,88.595,53.332,90.469,51.02,90.469z M71.179,79.146H30.861V19.383h40.318V79.146z"/><g><g><g><path fill="#000000" d="M62.651,49.746c-0.257-0.25-0.418-0.597-0.424-0.983c-0.082-5.832-4.893-10.509-10.724-10.427     c-0.772,0.011-1.408-0.607-1.418-1.379c-0.011-0.773,0.607-1.408,1.379-1.418c3.575-0.05,6.953,1.293,9.513,3.782     c2.56,2.489,3.998,5.829,4.048,9.403c0.011,0.773-0.607,1.408-1.379,1.418C63.259,50.147,62.907,49.996,62.651,49.746z"/></g></g><g><g><path fill="#000000" d="M56.837,49.983c-0.257-0.25-0.418-0.597-0.424-0.983c-0.018-1.314-0.547-2.542-1.487-3.456     c-0.941-0.915-2.183-1.408-3.497-1.39c-0.773,0.011-1.408-0.607-1.418-1.379c-0.011-0.773,0.607-1.408,1.379-1.418     c2.062-0.029,4.01,0.746,5.487,2.181c1.477,1.436,2.306,3.362,2.335,5.423c0.011,0.773-0.607,1.408-1.379,1.418     C57.445,50.385,57.093,50.233,56.837,49.983z"/></g></g><path d="M60.866,65.12c-3.585-0.31-6.483-1.629-9.208-3.36c-6.398-4.065-11.453-9.363-14.693-16.279   c-0.426-0.909-0.761-1.876-1.018-2.848c-1.077-4.084-0.179-5.359,3.275-7.917c0.26-0.193,0.606-0.324,0.929-0.368   c2.818-0.392,3.912,1.795,5.158,3.606c1.32,1.918,1.225,3.285-0.023,4.771c-1.988,2.364-2.19,2.945-0.116,5.265   c2.53,2.83,5.302,5.477,8.196,7.936c1.863,1.583,2.548,1.326,4.331-0.31c1.627-1.493,2.764-1.632,4.718-0.557   c0.393,0.216,0.765,0.471,1.136,0.724c4.61,3.146,3.451,5.71-0.713,8.837C62.27,65.046,61.351,65.007,60.866,65.12z"/></g><text x="0" y="115" fill="#000000" font-size="5px" font-weight="bold" font-family="'Helvetica Neue', Helvetica, Arial-Unicode, Arial, Sans-serif">Created by  Thays Malcher</text><text x="0" y="120" fill="#000000" font-size="5px" font-weight="bold" font-family="'Helvetica Neue', Helvetica, Arial-Unicode, Arial, Sans-serif">from the Noun Project</text></svg>