<svg xmlns="http://www.w3.org/2000/svg" xmlns:xlink="http://www.w3.org/1999/xlink" version="1.1" x="0px" y="0px" viewBox="0 0 100 125" enable-background="new 0 0 100 100" xml:space="preserve"><path fill="#000000" d="M66.3,29.8h-33c-2.2,0-3.9,1.8-3.9,3.9v33c0,2.2,1.8,3.9,3.9,3.9h33c2.2,0,3.9-1.8,3.9-3.9v-33  C70.2,31.5,68.5,29.8,66.3,29.8z M64.6,62.2c0,1.6-1.3,2.8-2.8,2.8H38c-1.6,0-2.8-1.3-2.8-2.8V38.4c0-1.6,1.3-2.8,2.8-2.8h23.8  c1.6,0,2.8,1.3,2.8,2.8V62.2z"/><rect x="38.6" y="38.9" fill="#000000" width="22.4" height="22.4"/><path fill="#000000" d="M26.5,65.2c0,1-0.8,1.9-1.9,1.9h-7.1c-1,0-1.9-0.8-1.9-1.9l0,0c0-1,0.8-1.9,1.9-1.9h7.1  C25.6,63.3,26.5,64.2,26.5,65.2L26.5,65.2z"/><path fill="#000000" d="M26.5,55.6c0,1-0.8,1.9-1.9,1.9h-7.1c-1,0-1.9-0.8-1.9-1.9l0,0c0-1,0.8-1.9,1.9-1.9h7.1  C25.6,53.7,26.5,54.6,26.5,55.6L26.5,55.6z"/><path fill="#000000" d="M26.5,45.5c0,1-0.8,1.9-1.9,1.9h-7.1c-1,0-1.9-0.8-1.9-1.9l0,0c0-1,0.8-1.9,1.9-1.9h7.1  C25.6,43.6,26.5,44.4,26.5,45.5L26.5,45.5z"/><path fill="#000000" d="M26.5,35.9c0,1-0.8,1.9-1.9,1.9h-7.1c-1,0-1.9-0.8-1.9-1.9l0,0c0-1,0.8-1.9,1.9-1.9h7.1  C25.6,34,26.5,34.8,26.5,35.9L26.5,35.9z"/><path fill="#000000" d="M84.4,65.1c0,1-0.8,1.9-1.9,1.9h-7.1c-1,0-1.9-0.8-1.9-1.9l0,0c0-1,0.8-1.9,1.9-1.9h7.1  C83.6,63.2,84.4,64.1,84.4,65.1L84.4,65.1z"/><path fill="#000000" d="M84.4,55.5c0,1-0.8,1.9-1.9,1.9h-7.1c-1,0-1.9-0.8-1.9-1.9l0,0c0-1,0.8-1.9,1.9-1.9h7.1  C83.6,53.6,84.4,54.4,84.4,55.5L84.4,55.5z"/><path fill="#000000" d="M84.4,45.4c0,1-0.8,1.9-1.9,1.9h-7.1c-1,0-1.9-0.8-1.9-1.9l0,0c0-1,0.8-1.9,1.9-1.9h7.1  C83.6,43.5,84.4,44.3,84.4,45.4L84.4,45.4z"/><path fill="#000000" d="M84.4,35.7c0,1-0.8,1.9-1.9,1.9h-7.1c-1,0-1.9-0.8-1.9-1.9l0,0c0-1,0.8-1.9,1.9-1.9h7.1  C83.6,33.9,84.4,34.7,84.4,35.7L84.4,35.7z"/><path fill="#000000" d="M35.2,83.8c-1,0-1.9-0.8-1.9-1.9v-7.1c0-1,0.8-1.9,1.9-1.9l0,0c1,0,1.9,0.8,1.9,1.9v7.1  C37.1,82.9,36.3,83.8,35.2,83.8L35.2,83.8z"/><path fill="#000000" d="M44.8,83.8c-1,0-1.9-0.8-1.9-1.9v-7.1c0-1,0.8-1.9,1.9-1.9l0,0c1,0,1.9,0.8,1.9,1.9v7.1  C46.7,82.9,45.9,83.8,44.8,83.8L44.8,83.8z"/><path fill="#000000" d="M54.7,83.8c-1,0-1.9-0.8-1.9-1.9v-7.1c0-1,0.8-1.9,1.9-1.9l0,0c1,0,1.9,0.8,1.9,1.9v7.1  C56.6,82.9,55.8,83.8,54.7,83.8L54.7,83.8z"/><path fill="#000000" d="M64.3,83.8c-1,0-1.9-0.8-1.9-1.9v-7.1c0-1,0.8-1.9,1.9-1.9l0,0c1,0,1.9,0.8,1.9,1.9v7.1  C66.2,82.9,65.4,83.8,64.3,83.8L64.3,83.8z"/><path fill="#000000" d="M35.2,27.5c-1,0-1.9-0.8-1.9-1.9v-7.1c0-1,0.8-1.9,1.9-1.9l0,0c1,0,1.9,0.8,1.9,1.9v7.1  C37.1,26.6,36.3,27.5,35.2,27.5L35.2,27.5z"/><path fill="#000000" d="M44.8,27.5c-1,0-1.9-0.8-1.9-1.9v-7.1c0-1,0.8-1.9,1.9-1.9l0,0c1,0,1.9,0.8,1.9,1.9v7.1  C46.7,26.6,45.9,27.5,44.8,27.5L44.8,27.5z"/><path fill="#000000" d="M54.7,27.5c-1,0-1.9-0.8-1.9-1.9v-7.1c0-1,0.8-1.9,1.9-1.9l0,0c1,0,1.9,0.8,1.9,1.9v7.1  C56.6,26.6,55.8,27.5,54.7,27.5L54.7,27.5z"/><path fill="#000000" d="M64.3,27.5c-1,0-1.9-0.8-1.9-1.9v-7.1c0-1,0.8-1.9,1.9-1.9l0,0c1,0,1.9,0.8,1.9,1.9v7.1  C66.2,26.6,65.4,27.5,64.3,27.5L64.3,27.5z"/><text x="0" y="115" fill="#000000" font-size="5px" font-weight="bold" font-family="'Helvetica Neue', Helvetica, Arial-Unicode, Arial, Sans-serif">Created by TRR BNN</text><text x="0" y="120" fill="#000000" font-size="5px" font-weight="bold" font-family="'Helvetica Neue', Helvetica, Arial-Unicode, Arial, Sans-serif">from the Noun Project</text></svg>