<?xml version="1.0" encoding="UTF-8" standalone="no"?>
<svg
   xmlns:dc="http://purl.org/dc/elements/1.1/"
   xmlns:cc="http://creativecommons.org/ns#"
   xmlns:rdf="http://www.w3.org/1999/02/22-rdf-syntax-ns#"
   xmlns:svg="http://www.w3.org/2000/svg"
   xmlns="http://www.w3.org/2000/svg"
   xmlns:sodipodi="http://sodipodi.sourceforge.net/DTD/sodipodi-0.dtd"
   xmlns:inkscape="http://www.inkscape.org/namespaces/inkscape"
   version="1.1"
   x="0px"
   y="0px"
   viewBox="0 0 450 450"
   enable-background="new 0 0 100 100"
   xml:space="preserve"
   id="svg4268"
   inkscape:version="0.91 r"
   sodipodi:docname="splash.svg"
   width="450"
   height="450"
   inkscape:export-filename="/home/isidoro/APPS/AndroidSensor/resources/icon.png"
   inkscape:export-xdpi="115.2"
   inkscape:export-ydpi="115.2"><metadata
     id="metadata4296"><rdf:RDF><cc:Work
         rdf:about=""><dc:format>image/svg+xml</dc:format><dc:type
           rdf:resource="http://purl.org/dc/dcmitype/StillImage" /><dc:title></dc:title></cc:Work></rdf:RDF></metadata><defs
     id="defs4294"><style
       id="style4431">.cls-1{fill:none;stroke:#000;stroke-linecap:round;stroke-linejoin:round;stroke-width:5px;}</style></defs><sodipodi:namedview
     pagecolor="#ffffff"
     bordercolor="#666666"
     borderopacity="1"
     objecttolerance="10"
     gridtolerance="10"
     guidetolerance="10"
     inkscape:pageopacity="0"
     inkscape:pageshadow="2"
     inkscape:window-width="1280"
     inkscape:window-height="953"
     id="namedview4292"
     showgrid="false"
     inkscape:zoom="1.1285424"
     inkscape:cx="73.932811"
     inkscape:cy="132.94665"
     inkscape:window-x="0"
     inkscape:window-y="40"
     inkscape:window-maximized="1"
     inkscape:current-layer="svg4268"
     fit-margin-top="0"
     fit-margin-left="0"
     fit-margin-right="0"
     fit-margin-bottom="0" /><g
     id="g4540"
     transform="translate(38.847118,9.14787)"><path
       style="fill:#000040;fill-opacity:1"
       inkscape:connector-curvature="0"
       id="path4270"
       d="m 354.88006,145.36412 -53.49446,0 c -6.27162,0 -11.4031,5.13147 -11.4031,11.40309 l 0,118.16984 c 0,6.27162 5.13148,11.40309 11.4031,11.40309 l 53.49446,0 c 6.27162,0 11.4031,-5.13147 11.4031,-11.40309 l 0,-118.16822 c 0.002,-6.27162 -5.13148,-11.40471 -11.4031,-11.40471 z m -39.27749,8.97197 25.0589,0 c 1.06068,0 1.92836,0.86768 1.92836,1.92835 0,1.06068 -0.86768,1.92836 -1.92836,1.92836 l -25.0589,0 c -1.06068,0 -1.92836,-0.86768 -1.92836,-1.92836 0,-1.06067 0.86768,-1.92835 1.92836,-1.92835 z m 12.53026,127.15153 c -3.74967,0 -6.7906,-3.04093 -6.7906,-6.7906 0,-3.74968 3.04093,-6.79061 6.7906,-6.79061 3.74967,0 6.79061,3.04093 6.79061,6.79061 0,3.75129 -3.04094,6.7906 -6.79061,6.7906 z m 32.69449,-18.36399 -65.38898,0 0,-96.92547 65.38898,0 0,96.92547 z" /><g
       style="fill:#007040;fill-opacity:1"
       transform="matrix(0.73597349,0,0,0.73597349,280.80045,109.90949)"
       id="g4407"><path
         style="fill:#007040;fill-opacity:1"
         inkscape:connector-curvature="0"
         d="m 80.61262,123.54899 -33,0 c -2.2,0 -3.9,1.8 -3.9,3.9 l 0,32.99999 c 0,2.2 1.8,3.90001 3.9,3.90001 l 33,0 c 2.2,0 3.9,-1.8 3.9,-3.90001 l 0,-32.99999 c 0,-2.2 -1.7,-3.9 -3.9,-3.9 z m -1.7,32.39999 c 0,1.60001 -1.3,2.8 -2.8,2.8 l -23.8,0 c -1.6,0 -2.8,-1.3 -2.8,-2.8 l 0,-23.8 c 0,-1.59999 1.3,-2.79999 2.8,-2.79999 l 23.8,0 c 1.6,0 2.8,1.29999 2.8,2.79999 l 0,23.8 z"
         id="path4319" /><rect
         style="fill:#007040;fill-opacity:1"
         x="52.912617"
         y="132.64899"
         width="22.4"
         height="22.4"
         id="rect4321" /><path
         style="fill:#007040;fill-opacity:1"
         inkscape:connector-curvature="0"
         d="m 40.81262,158.94898 c 0,1 -0.8,1.90001 -1.9,1.90001 l -7.1,0 c -1,0 -1.9,-0.8 -1.9,-1.90001 l 0,0 c 0,-1 0.8,-1.89999 1.9,-1.89999 l 7.1,0 c 1,0 1.9,0.89999 1.9,1.89999 l 0,0 z"
         id="path4323" /><path
         style="fill:#007040;fill-opacity:1"
         inkscape:connector-curvature="0"
         d="m 40.81262,149.34898 c 0,1 -0.8,1.9 -1.9,1.9 l -7.1,0 c -1,0 -1.9,-0.8 -1.9,-1.9 l 0,0 c 0,-1 0.8,-1.9 1.9,-1.9 l 7.1,0 c 1,0 1.9,0.9 1.9,1.9 l 0,0 z"
         id="path4325" /><path
         style="fill:#007040;fill-opacity:1"
         inkscape:connector-curvature="0"
         d="m 40.81262,139.24898 c 0,1 -0.8,1.9 -1.9,1.9 l -7.1,0 c -1,0 -1.9,-0.8 -1.9,-1.9 l 0,0 c 0,-1 0.8,-1.9 1.9,-1.9 l 7.1,0 c 1,0 1.9,0.8 1.9,1.9 l 0,0 z"
         id="path4327" /><path
         style="fill:#007040;fill-opacity:1"
         inkscape:connector-curvature="0"
         d="m 40.81262,129.64898 c 0,1 -0.8,1.90001 -1.9,1.90001 l -7.1,0 c -1,0 -1.9,-0.80001 -1.9,-1.90001 l 0,0 c 0,-1 0.8,-1.89999 1.9,-1.89999 l 7.1,0 c 1,0 1.9,0.8 1.9,1.89999 l 0,0 z"
         id="path4329" /><path
         style="fill:#007040;fill-opacity:1"
         inkscape:connector-curvature="0"
         d="m 98.71262,158.84898 c 0,1 -0.8,1.9 -1.9,1.9 l -7.1,0 c -1,0 -1.9,-0.8 -1.9,-1.9 l 0,0 c 0,-1 0.8,-1.9 1.9,-1.9 l 7.1,0 c 1.1,0 1.9,0.9 1.9,1.9 l 0,0 z"
         id="path4331" /><path
         style="fill:#007040;fill-opacity:1"
         inkscape:connector-curvature="0"
         d="m 98.71262,149.24898 c 0,1 -0.8,1.9 -1.9,1.9 l -7.1,0 c -1,0 -1.9,-0.8 -1.9,-1.9 l 0,0 c 0,-1 0.8,-1.9 1.9,-1.9 l 7.1,0 c 1.1,0 1.9,0.8 1.9,1.9 l 0,0 z"
         id="path4333" /><path
         style="fill:#007040;fill-opacity:1"
         inkscape:connector-curvature="0"
         d="m 98.71262,139.14898 c 0,1 -0.8,1.90001 -1.9,1.90001 l -7.1,0 c -1,0 -1.9,-0.80001 -1.9,-1.90001 l 0,0 c 0,-1 0.8,-1.9 1.9,-1.9 l 7.1,0 c 1.1,0 1.9,0.80001 1.9,1.9 l 0,0 z"
         id="path4335" /><path
         style="fill:#007040;fill-opacity:1"
         inkscape:connector-curvature="0"
         d="m 98.71262,129.44898 c 0,1 -0.8,1.9 -1.9,1.9 l -7.1,0 c -1,0 -1.9,-0.79999 -1.9,-1.9 l 0,0 c 0,-1 0.8,-1.89999 1.9,-1.89999 l 7.1,0 c 1.1,0.1 1.9,0.89999 1.9,1.89999 l 0,0 z"
         id="path4337" /><path
         style="fill:#007040;fill-opacity:1"
         inkscape:connector-curvature="0"
         d="m 49.51262,177.54899 c -1,0 -1.9,-0.80001 -1.9,-1.90001 l 0,-7.09999 c 0,-1 0.8,-1.90001 1.9,-1.90001 l 0,0 c 1,0 1.9,0.8 1.9,1.90001 l 0,7.09999 c 0,1 -0.8,1.90001 -1.9,1.90001 l 0,0 z"
         id="path4339" /><path
         style="fill:#007040;fill-opacity:1"
         inkscape:connector-curvature="0"
         d="m 59.11262,177.54899 c -1,0 -1.9,-0.80001 -1.9,-1.90001 l 0,-7.09999 c 0,-1 0.8,-1.90001 1.9,-1.90001 l 0,0 c 1,0 1.9,0.8 1.9,1.90001 l 0,7.09999 c 0,1 -0.8,1.90001 -1.9,1.90001 l 0,0 z"
         id="path4341" /><path
         style="fill:#007040;fill-opacity:1"
         inkscape:connector-curvature="0"
         d="m 69.01262,177.54899 c -1,0 -1.9,-0.80001 -1.9,-1.90001 l 0,-7.09999 c 0,-1 0.8,-1.90001 1.9,-1.90001 l 0,0 c 1,0 1.9,0.8 1.9,1.90001 l 0,7.09999 c 0,1 -0.8,1.90001 -1.9,1.90001 l 0,0 z"
         id="path4343" /><path
         style="fill:#007040;fill-opacity:1"
         inkscape:connector-curvature="0"
         d="m 78.61262,177.54899 c -1,0 -1.9,-0.80001 -1.9,-1.90001 l 0,-7.09999 c 0,-1 0.8,-1.90001 1.9,-1.90001 l 0,0 c 1,0 1.9,0.8 1.9,1.90001 l 0,7.09999 c 0,1 -0.8,1.90001 -1.9,1.90001 l 0,0 z"
         id="path4345" /><path
         style="fill:#007040;fill-opacity:1"
         inkscape:connector-curvature="0"
         d="m 49.51262,121.24899 c -1,0 -1.9,-0.8 -1.9,-1.9 l 0,-7.1 c 0,-1 0.8,-1.9 1.9,-1.9 l 0,0 c 1,0 1.9,0.8 1.9,1.9 l 0,7.1 c 0,1 -0.8,1.9 -1.9,1.9 l 0,0 z"
         id="path4347" /><path
         style="fill:#007040;fill-opacity:1"
         inkscape:connector-curvature="0"
         d="m 59.11262,121.24899 c -1,0 -1.9,-0.8 -1.9,-1.9 l 0,-7.1 c 0,-1 0.8,-1.9 1.9,-1.9 l 0,0 c 1,0 1.9,0.8 1.9,1.9 l 0,7.1 c 0,1 -0.8,1.9 -1.9,1.9 l 0,0 z"
         id="path4349" /><path
         style="fill:#007040;fill-opacity:1"
         inkscape:connector-curvature="0"
         d="m 69.01262,121.24899 c -1,0 -1.9,-0.8 -1.9,-1.9 l 0,-7.1 c 0,-1 0.8,-1.9 1.9,-1.9 l 0,0 c 1,0 1.9,0.8 1.9,1.9 l 0,7.1 c 0,1 -0.8,1.9 -1.9,1.9 l 0,0 z"
         id="path4351" /><path
         style="fill:#007040;fill-opacity:1"
         inkscape:connector-curvature="0"
         d="m 78.61262,121.24899 c -1,0 -1.9,-0.8 -1.9,-1.9 l 0,-7.1 c 0,-1 0.8,-1.9 1.9,-1.9 l 0,0 c 1,0 1.9,0.8 1.9,1.9 l 0,7.1 c 0,1 -0.8,1.9 -1.9,1.9 l 0,0 z"
         id="path4353" /></g><g
       style="fill:none;fill-opacity:1;stroke:#ce4f1e;stroke-opacity:1"
       transform="matrix(0.5371704,0,0,0.5371704,378.62778,217.43733)"
       id="g4466"><path
         style="fill:none;fill-opacity:1;stroke:#ce4f1e;stroke-width:5px;stroke-linecap:round;stroke-linejoin:round;stroke-opacity:1"
         inkscape:connector-curvature="0"
         class="cls-1"
         d="m -60.01565,-52.41178 c 0,-10.41 -8.09,-18.84 -18.06,-18.84 l -0.94,0"
         id="path4435" /><path
         style="fill:none;fill-opacity:1;stroke:#ce4f1e;stroke-width:5px;stroke-linecap:round;stroke-linejoin:round;stroke-opacity:1"
         inkscape:connector-curvature="0"
         class="cls-1"
         d="m -47.86565,-52.02178 c 0,-16.22 -13.95,-29.37 -31.15,-29.37"
         id="path4437" /><path
         style="fill:none;fill-opacity:1;stroke:#ce4f1e;stroke-width:5px;stroke-linecap:round;stroke-linejoin:round;stroke-opacity:1"
         inkscape:connector-curvature="0"
         class="cls-1"
         d="m -37.14565,-52.39178 c 0,-21.63 -18.75,-39.16 -41.87,-39.16"
         id="path4439" /></g></g><text
     xml:space="preserve"
     style="font-style:normal;font-weight:normal;font-size:40px;line-height:125%;font-family:sans-serif;letter-spacing:0px;word-spacing:0px;fill:#000000;fill-opacity:1;stroke:none;stroke-width:1px;stroke-linecap:butt;stroke-linejoin:miter;stroke-opacity:1"
     x="48.442177"
     y="201.61818"
     id="text4566"
     sodipodi:linespacing="125%"><tspan
       sodipodi:role="line"
       id="tspan4568"
       x="48.442177"
       y="201.61818"
       style="font-size:35px">AndroidSensor</tspan></text>
<g
     id="g4638"
     transform="matrix(0.66087885,0,0,0.66087885,53.726696,26.795552)"
     style="fill:#c4671a;fill-opacity:1"><path
       id="path4606"
       d="m 164.27076,338.01368 -2.8,1.8 c -0.6,0.4 -0.7,1.1 -0.4,1.7 0.4,0.5 1.2,0.7 1.7,0.3 l 3.4,-2.2 -1.9,-1.6 z"
       inkscape:connector-curvature="0"
       style="fill:#c4671a;fill-opacity:1" /><path
       id="path4608"
       d="m 162.37076,336.51368 -2.3,-1.8 -0.1,0.1 c -0.6,0.4 -0.8,1.2 -0.4,1.8 0.5,0.7 1.4,0.9 2.1,0.4 l 0.7,-0.5 z"
       inkscape:connector-curvature="0"
       style="fill:#c4671a;fill-opacity:1" /><path
       id="path4610"
       d="m 214.67076,300.51368 -34.6,-20 c -2.2,-1.3 -5,-1.3 -7.2,0 l -34.6,20 c -2.2,1.3 -3.6,3.7 -3.6,6.2 l 0,40 c 0,2.6 1.4,5 3.6,6.2 l 34.6,20 c 1.1,0.6 2.3,1 3.6,1 1.3,0 2.5,-0.3 3.6,-1 l 34.6,-20 c 2.2,-1.3 3.6,-3.7 3.6,-6.2 l 0,-40 c 0,-2.5 -1.4,-4.9 -3.6,-6.2 z m -22.1,28.8 c 0,0.2 -0.1,0.4 -0.1,0.6 -0.1,0.9 -0.3,1.9 -0.5,2.9 0.6,1.2 0.5,2.7 -0.4,3.8 -0.4,0.5 -1,0.9 -1.6,1.1 0.5,1.1 0.5,2.5 -0.3,3.5 l 0,0 c 0,0 -0.1,0 -0.1,0.1 0,0 0,0.1 -0.1,0.1 l 0,0 c -0.9,0.9 -2.1,1.3 -3.3,1.1 -0.1,0.6 -0.3,1.1 -0.7,1.6 -1.2,1.5 -3.5,1.8 -5,0.6 l -2.5,-2 c -0.1,0.4 -0.3,0.8 -0.6,1.2 -1.2,1.5 -3.5,1.8 -5,0.6 l -0.4,-0.3 -1.4,1 c 0,0 0,0 0,0 l -2.7,1.8 c -1.6,1.1 -3.8,0.6 -4.9,-1 -0.3,-0.5 -0.5,-1.1 -0.5,-1.7 -1.2,0 -2.5,-0.5 -3.2,-1.5 l 0,0 c 0,0 0,-0.1 0,-0.1 0,0 0,-0.1 -0.1,-0.1 l 0,0 c -0.6,-1.1 -0.6,-2.5 0,-3.5 -0.6,-0.3 -1.1,-0.7 -1.5,-1.3 -1,-1.5 -0.6,-3.6 0.8,-4.7 -1.3,-2 -1.5,-4.9 -1.6,-7 0,-0.2 0,-0.4 0,-0.6 l -5.1,-4 1.1,-2 6.2,4.8 0,0.5 c 0,0.3 0.1,0.8 0.1,1.2 0.1,2.1 0.3,5.3 1.8,6.5 l 8.8,7 4.1,3.2 c 0.6,0.5 1.4,0.4 1.9,-0.2 0.4,-0.6 0.3,-1.4 -0.2,-1.8 l -5.3,-4.2 1.4,-1.8 5.2,4.1 5.1,4.1 c 0.6,0.5 1.4,0.4 1.8,-0.2 0.4,-0.6 0.3,-1.4 -0.2,-1.8 l -11.5,-9.1 1.4,-1.8 11.5,9.1 c 0.1,0.1 0.2,0.2 0.3,0.3 l 0,0 0.8,0.6 c 0.5,0.4 1.3,0.4 1.8,-0.1 0.4,-0.5 0.3,-1.3 -0.3,-1.7 l -13,-10.3 1.4,-1.8 11.6,9.3 c 0.7,0.5 1.6,0.4 2.1,-0.2 0.4,-0.6 0.3,-1.4 -0.2,-1.8 l -12,-9.6 c -1.1,-0.8 -3.6,0.7 -3.6,0.7 l -7.4,4.8 c -1.4,0.6 -3.1,-0.4 -4.3,-1.6 -0.1,-0.1 -0.2,-0.2 -0.3,-0.4 l -0.2,-0.2 c -1.1,-1.9 -1,-4 0.4,-4.9 l 12.7,-8.3 -1.3,-1 c -1.4,-1.1 -5.3,0.9 -7.2,1.9 l -0.6,0.3 -5,-4.2 0.7,-2.1 4.5,3.7 c 3.4,-1.7 6.8,-3 8.9,-1.3 l 2.2,1.7 c 2.1,-0.3 4.7,1.1 7.3,2.7 l 8.3,-5.4 1.2,1.9 -9.5,6.2 -0.6,-0.4 c -1.8,-1.1 -5.5,-3.5 -6.9,-2.6 l -13.5,8.8 c -0.2,0.1 -0.3,0.9 0.3,1.9 0.7,1 2,1.2 3,0.6 l 5.8,-3.8 c 0.8,-0.6 2.1,-1.1 2.1,-1.1 1.6,-0.6 3,-0.6 4.1,0.2 l 7.9,6.3 3.3,2.6 c 0.1,-0.4 0.1,-0.9 0.2,-1.3 0.1,-0.4 0.1,-0.8 0.2,-1.2 l 0.1,-0.5 9.8,-6.3 1.2,1.9 -8.7,5.9 z"
       inkscape:connector-curvature="0"
       style="fill:#c4671a;fill-opacity:1" /><path
       id="path4612"
       d="m 168.07076,341.01368 -2.8,1.8 c -0.6,0.4 -0.8,1.2 -0.4,1.8 0.4,0.6 1.2,0.8 1.8,0.4 l 3.5,-2.3 -1.9,-1.5 -0.2,-0.2 z"
       inkscape:connector-curvature="0"
       style="fill:#c4671a;fill-opacity:1" /></g><g
     id="g4871"
     transform="translate(24.367715,-72.591045)"><g
       transform="matrix(0.08622888,0,0,0.08622888,52.91319,293.75572)"
       id="g4593"><g
         style="display:none"
         id="max_width__x2F__height"
         display="none"><path
           style="display:inline"
           inkscape:connector-curvature="0"
           display="inline"
           d="m 499.001,1 0,498 L 1,499 1,1 499.001,1 m 1,-1 L 0,0 l 0,500 500.001,0 0,-500 0,0 z"
           id="path4572" /></g><g
         id="androd"><path
           style="fill:#9fbf3b"
           inkscape:connector-curvature="0"
           d="m 301.314,83.298 20.159,-29.272 c 1.197,-1.74 0.899,-4.024 -0.666,-5.104 -1.563,-1.074 -3.805,-0.543 -4.993,1.199 L 294.863,80.53 c -13.807,-5.439 -29.139,-8.47 -45.299,-8.47 -16.16,0 -31.496,3.028 -45.302,8.47 L 183.314,50.12 c -1.201,-1.74 -3.439,-2.273 -5.003,-1.199 -1.564,1.077 -1.861,3.362 -0.664,5.104 l 20.166,29.272 c -32.063,14.916 -54.548,43.26 -57.413,76.34 l 218.316,0 c -2.855,-33.08 -25.341,-61.423 -57.402,-76.339"
           id="path4575" /><path
           style="fill:#ffffff"
           inkscape:connector-curvature="0"
           d="m 203.956,129.438 c -6.673,0 -12.08,-5.407 -12.08,-12.079 0,-6.671 5.404,-12.08 12.08,-12.08 6.668,0 12.073,5.407 12.073,12.08 0.001,6.671 -5.405,12.079 -12.073,12.079"
           id="path4577" /><path
           style="fill:#ffffff"
           inkscape:connector-curvature="0"
           d="m 295.161,129.438 c -6.668,0 -12.074,-5.407 -12.074,-12.079 0,-6.673 5.406,-12.08 12.074,-12.08 6.675,0 12.079,5.409 12.079,12.08 0,6.671 -5.406,12.079 -12.079,12.079"
           id="path4579" /><path
           style="fill:#9fbf3b"
           inkscape:connector-curvature="0"
           d="m 126.383,297.598 c 0,13.45 -10.904,24.354 -24.355,24.354 l 0,0 c -13.45,0 -24.354,-10.904 -24.354,-24.354 l 0,-98.508 c 0,-13.45 10.904,-24.354 24.354,-24.354 l 0,0 c 13.451,0 24.355,10.904 24.355,24.354 l 0,98.508 z"
           id="path4581" /><path
           style="fill:#9fbf3b"
           inkscape:connector-curvature="0"
           d="m 140.396,175.489 0,177.915 c 0,10.566 8.566,19.133 19.135,19.133 l 22.633,0 0,54.744 c 0,13.451 10.903,24.354 24.354,24.354 13.451,0 24.355,-10.903 24.355,-24.354 l 0,-54.744 37.371,0 0,54.744 c 0,13.451 10.902,24.354 24.354,24.354 13.452,0 24.354,-10.903 24.354,-24.354 l 0,-54.744 22.633,0 c 10.569,0 19.137,-8.562 19.137,-19.133 l 0,-177.915 -218.326,0 z"
           id="path4583" /><path
           style="fill:#9fbf3b"
           inkscape:connector-curvature="0"
           d="m 372.734,297.598 c 0,13.45 10.903,24.354 24.354,24.354 l 0,0 c 13.45,0 24.354,-10.904 24.354,-24.354 l 0,-98.508 c 0,-13.45 -10.904,-24.354 -24.354,-24.354 l 0,0 c -13.451,0 -24.354,10.904 -24.354,24.354 l 0,98.508 z"
           id="path4585" /></g></g><circle
       r="27.469061"
       cy="315.31302"
       cx="74.432297"
       id="path4854"
       style="opacity:0.98999999;fill:none;fill-opacity:1;stroke:#9fbf3b;stroke-width:7;stroke-linecap:square;stroke-linejoin:round;stroke-miterlimit:4;stroke-dasharray:none;stroke-dashoffset:4.49999905;stroke-opacity:1" /></g><g
     id="g4884"
     transform="translate(38.988344,-72.14796)"><circle
       r="27.469061"
       cy="314.86993"
       cx="202.91661"
       id="path4854-3"
       style="opacity:0.98999999;fill:none;fill-opacity:1;stroke:#004040;stroke-width:7;stroke-linecap:square;stroke-linejoin:round;stroke-miterlimit:4;stroke-dasharray:none;stroke-dashoffset:4.49999905;stroke-opacity:1" /><g
       style="fill:#004040;fill-opacity:1"
       transform="matrix(0.45697577,0,0,0.45697577,133.50149,162.45758)"
       id="g4814"><g
         style="fill:#004040;fill-opacity:1"
         id="g4646"
         transform="translate(101.90109,283.02392)"><path
           style="fill:#004040;fill-opacity:1"
           inkscape:connector-curvature="0"
           d="m 90,83 -75,0 c -1.1,0 -2,-0.9 -2,-2 l 0,-1 c 0,-1.1 0.9,-2 2,-2 0.7,0 1.4,0.4 1.7,1 l 72.4,0 1.8,-1.8 0,-39.4 -2.4,-2.4 C 88.2,35 88,34.5 88,34 l 0,-12 -71,0 0,6 c 0,1.1 -0.9,2 -2,2 -1.1,0 -2,-0.9 -2,-2 l 0,-8 c 0,-1.1 0.9,-2 2,-2 l 75,0 c 1.1,0 2,0.9 2,2 l 0,13.2 2.4,2.4 C 94.8,36 95,36.5 95,37 l 0,41 c 0,0.5 -0.2,1 -0.6,1.4 l -3,3 C 91,82.8 90.5,83 90,83 Z"
           id="path4648" /></g><g
         style="fill:#004040;fill-opacity:1"
         id="g4650"
         transform="translate(101.90109,283.02392)"><path
           style="fill:#004040;fill-opacity:1"
           inkscape:connector-curvature="0"
           d="m 15,65 c -1.1,0 -2,-0.9 -2,-2 l 0,-15 c 0,-1.1 0.9,-2 2,-2 1.1,0 2,0.9 2,2 l 0,15 c 0,1.1 -0.9,2 -2,2 z"
           id="path4652" /></g><path
         style="fill:#004040;fill-opacity:1"
         inkscape:connector-curvature="0"
         d="m 124.40109,328.02392 -16,0 c -0.8,0 -1.5,-0.7 -1.5,-1.5 l 0,-11 c 0,-0.8 0.7,-1.5 1.5,-1.5 l 16,0 c 0.8,0 1.5,0.7 1.5,1.5 l 0,11 c 0,0.8 -0.7,1.5 -1.5,1.5 z"
         id="path4654" /><path
         style="fill:#004040;fill-opacity:1"
         inkscape:connector-curvature="0"
         d="m 127.40109,360.02392 -14,0 c -0.8,0 -1.5,-0.7 -1.5,-1.5 l 0,-8 c 0,-0.8 0.7,-1.5 1.5,-1.5 l 14,0 c 0.8,0 1.5,0.7 1.5,1.5 l 0,8 c 0,0.8 -0.7,1.5 -1.5,1.5 z"
         id="path4656" /><path
         style="fill:#004040;fill-opacity:1"
         inkscape:connector-curvature="0"
         d="m 150.90109,339.02392 c -0.6,0 -1,0.4 -1,1 l 0,1 2,0 0,-1 c 0,-0.6 -0.4,-1 -1,-1 z"
         id="path4658" /><path
         style="fill:#004040;fill-opacity:1"
         inkscape:connector-curvature="0"
         d="m 147.90109,339.02392 c -0.6,0 -1,0.4 -1,1 l 0,1 2,0 0,-1 c 0,-0.6 -0.4,-1 -1,-1 z"
         id="path4660" /><path
         style="fill:#004040;fill-opacity:1"
         inkscape:connector-curvature="0"
         d="m 153.90109,339.02392 c -0.6,0 -1,0.4 -1,1 l 0,1 2,0 0,-1 c 0,-0.6 -0.4,-1 -1,-1 z"
         id="path4662" /><path
         style="fill:#004040;fill-opacity:1"
         inkscape:connector-curvature="0"
         d="m 156.90109,339.02392 c -0.6,0 -1,0.4 -1,1 l 0,1 2,0 0,-1 c 0,-0.6 -0.4,-1 -1,-1 z"
         id="path4664" /><path
         style="fill:#004040;fill-opacity:1"
         inkscape:connector-curvature="0"
         d="m 159.90109,339.02392 c -0.6,0 -1,0.4 -1,1 l 0,1 2,0 0,-1 c 0,-0.6 -0.4,-1 -1,-1 z"
         id="path4666" /><path
         style="fill:#004040;fill-opacity:1"
         inkscape:connector-curvature="0"
         d="m 162.90109,339.02392 c -0.6,0 -1,0.4 -1,1 l 0,1 2,0 0,-1 c 0,-0.6 -0.4,-1 -1,-1 z"
         id="path4668" /><path
         style="fill:#004040;fill-opacity:1"
         inkscape:connector-curvature="0"
         d="m 165.90109,339.02392 c -0.6,0 -1,0.4 -1,1 l 0,1 2,0 0,-1 c 0,-0.6 -0.4,-1 -1,-1 z"
         id="path4670" /><path
         style="fill:#004040;fill-opacity:1"
         inkscape:connector-curvature="0"
         d="m 168.90109,339.02392 c -0.6,0 -1,0.4 -1,1 l 0,1 2,0 0,-1 c 0,-0.6 -0.4,-1 -1,-1 z"
         id="path4672" /><path
         style="fill:#004040;fill-opacity:1"
         inkscape:connector-curvature="0"
         d="m 171.90109,339.02392 c -0.6,0 -1,0.4 -1,1 l 0,1 2,0 0,-1 c 0,-0.6 -0.4,-1 -1,-1 z"
         id="path4674" /><path
         style="fill:#004040;fill-opacity:1"
         inkscape:connector-curvature="0"
         d="m 174.90109,339.02392 c -0.6,0 -1,0.4 -1,1 l 0,1 2,0 0,-1 c 0,-0.6 -0.4,-1 -1,-1 z"
         id="path4676" /><path
         style="fill:#004040;fill-opacity:1"
         inkscape:connector-curvature="0"
         d="m 177.90109,339.02392 c -0.6,0 -1,0.4 -1,1 l 0,1 2,0 0,-1 c 0,-0.6 -0.4,-1 -1,-1 z"
         id="path4678" /><path
         style="fill:#004040;fill-opacity:1"
         inkscape:connector-curvature="0"
         d="m 180.90109,339.02392 c -0.6,0 -1,0.4 -1,1 l 0,1 2,0 0,-1 c 0,-0.6 -0.4,-1 -1,-1 z"
         id="path4680" /><path
         style="fill:#004040;fill-opacity:1"
         inkscape:connector-curvature="0"
         d="m 183.90109,339.02392 c -0.6,0 -1,0.4 -1,1 l 0,1 2,0 0,-1 c 0,-0.6 -0.4,-1 -1,-1 z"
         id="path4682" /><path
         style="fill:#004040;fill-opacity:1"
         inkscape:connector-curvature="0"
         d="m 186.90109,339.02392 c -0.6,0 -1,0.4 -1,1 l 0,1 2,0 0,-1 c 0,-0.6 -0.4,-1 -1,-1 z"
         id="path4684" /><path
         style="fill:#004040;fill-opacity:1"
         inkscape:connector-curvature="0"
         d="m 183.90109,354.02392 c 0.6,0 1,-0.4 1,-1 l 0,-1 -2,0 0,1 c 0,0.6 0.4,1 1,1 z"
         id="path4686" /><path
         style="fill:#004040;fill-opacity:1"
         inkscape:connector-curvature="0"
         d="m 186.90109,354.02392 c 0.6,0 1,-0.4 1,-1 l 0,-1 -2,0 0,1 c 0,0.6 0.4,1 1,1 z"
         id="path4688" /><path
         style="fill:#004040;fill-opacity:1"
         inkscape:connector-curvature="0"
         d="m 180.90109,354.02392 c 0.6,0 1,-0.4 1,-1 l 0,-1 -2,0 0,1 c 0,0.6 0.4,1 1,1 z"
         id="path4690" /><path
         style="fill:#004040;fill-opacity:1"
         inkscape:connector-curvature="0"
         d="m 177.90109,354.02392 c 0.6,0 1,-0.4 1,-1 l 0,-1 -2,0 0,1 c 0,0.6 0.4,1 1,1 z"
         id="path4692" /><path
         style="fill:#004040;fill-opacity:1"
         inkscape:connector-curvature="0"
         d="m 174.90109,354.02392 c 0.6,0 1,-0.4 1,-1 l 0,-1 -2,0 0,1 c 0,0.6 0.4,1 1,1 z"
         id="path4694" /><path
         style="fill:#004040;fill-opacity:1"
         inkscape:connector-curvature="0"
         d="m 171.90109,354.02392 c 0.6,0 1,-0.4 1,-1 l 0,-1 -2,0 0,1 c 0,0.6 0.4,1 1,1 z"
         id="path4696" /><path
         style="fill:#004040;fill-opacity:1"
         inkscape:connector-curvature="0"
         d="m 168.90109,354.02392 c 0.6,0 1,-0.4 1,-1 l 0,-1 -2,0 0,1 c 0,0.6 0.4,1 1,1 z"
         id="path4698" /><path
         style="fill:#004040;fill-opacity:1"
         inkscape:connector-curvature="0"
         d="m 165.90109,354.02392 c 0.6,0 1,-0.4 1,-1 l 0,-1 -2,0 0,1 c 0,0.6 0.4,1 1,1 z"
         id="path4700" /><path
         style="fill:#004040;fill-opacity:1"
         inkscape:connector-curvature="0"
         d="m 162.90109,354.02392 c 0.6,0 1,-0.4 1,-1 l 0,-1 -2,0 0,1 c 0,0.6 0.4,1 1,1 z"
         id="path4702" /><path
         style="fill:#004040;fill-opacity:1"
         inkscape:connector-curvature="0"
         d="m 159.90109,354.02392 c 0.6,0 1,-0.4 1,-1 l 0,-1 -2,0 0,1 c 0,0.6 0.4,1 1,1 z"
         id="path4704" /><path
         style="fill:#004040;fill-opacity:1"
         inkscape:connector-curvature="0"
         d="m 156.90109,354.02392 c 0.6,0 1,-0.4 1,-1 l 0,-1 -2,0 0,1 c 0,0.6 0.4,1 1,1 z"
         id="path4706" /><path
         style="fill:#004040;fill-opacity:1"
         inkscape:connector-curvature="0"
         d="m 153.90109,354.02392 c 0.6,0 1,-0.4 1,-1 l 0,-1 -2,0 0,1 c 0,0.6 0.4,1 1,1 z"
         id="path4708" /><path
         style="fill:#004040;fill-opacity:1"
         inkscape:connector-curvature="0"
         d="m 150.90109,354.02392 c 0.6,0 1,-0.4 1,-1 l 0,-1 -2,0 0,1 c 0,0.6 0.4,1 1,1 z"
         id="path4710" /><path
         style="fill:#004040;fill-opacity:1"
         inkscape:connector-curvature="0"
         d="m 147.90109,354.02392 c 0.6,0 1,-0.4 1,-1 l 0,-1 -2,0 0,1 c 0,0.6 0.4,1 1,1 z"
         id="path4712" /><path
         style="fill:#004040;fill-opacity:1"
         inkscape:connector-curvature="0"
         d="m 188.90109,342.02392 -43,0 c -0.6,0 -1,0.4 -1,1 l 0,7 c 0,0.6 0.4,1 1,1 l 43,0 c 0.6,0 1,-0.4 1,-1 l 0,-7 c 0,-0.6 -0.4,-1 -1,-1 z m 0,6.5 c -1.1,0 -2,-0.9 -2,-2 0,-1.1 0.9,-2 2,-2 l 0,4 z"
         id="path4714" /><path
         style="clip-rule:evenodd;fill:#004040;fill-opacity:1;fill-rule:evenodd"
         inkscape:connector-curvature="0"
         d="m 137.10109,321.12392 c 0,8.7 12,12 17.9,3.1 6.1,9.2 17.6,5.3 17.6,-3.1 0,-8.4 -11.4,-12.5 -17.6,-3.1 -5.8,-9.3 -17.9,-5.6 -17.9,3.1 l 0,0 z m 3.2,0 c 0,-6.3 8.9,-8.3 13,0 -4.2,7.9 -13,6.3 -13,0 l 0,0 z m 16.5,0 c 3.7,-8.4 12.9,-6.1 12.8,0 0,6.1 -9.2,8 -12.8,0 z"
         id="path4716" /><rect
         style="clip-rule:evenodd;fill:#004040;fill-opacity:1;fill-rule:evenodd"
         x="143.60109"
         y="320.22391"
         width="5.3000002"
         height="1.7"
         id="rect4718" /><polygon
         style="clip-rule:evenodd;fill:#004040;fill-opacity:1;fill-rule:evenodd"
         points="62.7,37.1 64.4,37.1 64.4,38.9 62.7,38.9 62.7,40.6 60.9,40.6 60.9,38.9 59.1,38.9 59.1,37.1 60.9,37.1 60.9,35.3 62.7,35.3 "
         id="polygon4720"
         transform="translate(101.90109,283.02392)" /></g></g></svg>